<svg xmlns="http://www.w3.org/2000/svg" version="1.1" xmlns:xlink="http://www.w3.org/1999/xlink" width="2000" height="2000" viewBox="0 0 2000 2000"><rect width="2000" height="2000" x="0" y="0" id="background" stroke="transparent" fill="#ffffff"></rect><svg xml:space="preserve" width="1500" height="1500" data-version="2" data-id="lg_7ZYYNkBeQAe6OoMgHU" viewBox="0 0 418 322" x="250" y="250">
    <path d="m334.723 227.36-24.928-106.64a2.564 2.564 0 0 0-.594-1.136c-14.181-15.596-30.244-23.505-47.746-23.505-25.204 0-45.49 16.318-51.525 21.73-6.032-5.412-26.319-21.73-51.525-21.73-17.502 0-33.565 7.909-47.743 23.505a2.543 2.543 0 0 0-.597 1.135L85.025 227.84a2.547 2.547 0 0 0 1.114 2.732c.91.579 2.094.52 2.946-.148 20.6-16.186 41.428-24.39 61.903-24.39 6.09 0 11.768.765 17.037 1.981-20.12-2.675-46.35 1.972-76.99 26.051a2.546 2.546 0 0 0-.428 3.58 2.547 2.547 0 0 0 3.581.43c42.826-33.647 75.84-28.173 95.047-18.82-19.651-7.966-51.476-10.241-93.096 22.462a2.546 2.546 0 0 0-.428 3.58 2.549 2.549 0 0 0 3.58.429c41.148-32.333 71.481-29.392 89.508-21.483a59.751 59.751 0 0 0-12.329-2.839c-22.768-2.792-48.067 6.624-75.227 27.964a2.546 2.546 0 0 0-.428 3.58 2.547 2.547 0 0 0 3.58.43c28.426-22.335 55.351-31.242 77.85-25.748 16.901 4.124 25.601 15.002 25.683 15.107.967 1.24 3.06 1.24 4.027 0 .107-.138 10.852-13.671 32.078-16.272 21.347-2.597 45.399 6.44 71.455 26.912a2.439 2.439 0 0 0 1.558.549 2.54 2.54 0 0 0 2.007-.975 2.548 2.548 0 0 0-.428-3.58c-27.163-21.343-52.464-30.757-75.227-27.964-3.816.47-7.3 1.265-10.496 2.255a61.738 61.738 0 0 1 7.014-2.342c24.222-6.463 52.115 1.982 80.657 24.408.467.37 1.023.546 1.574.546a2.548 2.548 0 0 0 1.579-4.555c-41.602-32.687-73.414-30.43-93.068-22.475 19.215-9.345 52.219-14.795 95.016 18.833.467.37 1.023.546 1.574.546a2.54 2.54 0 0 0 2.007-.975 2.548 2.548 0 0 0-.428-3.58c-30.634-24.072-56.859-28.724-76.98-26.054 5.262-1.216 10.94-1.979 17.025-1.979 20.473 0 41.3 8.208 61.903 24.39.46.363 1.018.546 1.576.546.026.003.039 0 .051 0a2.549 2.549 0 0 0 2.321-3.611m-65.85-26.425c-31.43 0-52.687 17.856-58.946 23.86-6.261-6.004-27.522-23.86-58.944-23.86-19.754 0-39.704 7.139-59.399 21.235l23.291-99.637c13.062-14.168 27.701-21.35 43.525-21.35 24.74 0 45.072 17.616 48.99 21.232.13 10.911 1.216 98.355 2.537 98.355 1.322 0 2.408-87.444 2.538-98.355 3.918-3.616 24.253-21.233 48.99-21.233 15.824 0 30.463 7.183 43.524 21.35l23.292 99.638c-19.693-14.099-39.648-21.235-59.399-21.235"></path>
    <g transform="matrix(1 0 0 1 209 291.783)">
        <filter id="a" width="140%" height="140%" x="-20%" y="-20%">
            <feGaussianBlur in="SourceAlpha"></feGaussianBlur>
            <feOffset result="oBlur"></feOffset>
            <feFlood flood-color="#000" flood-opacity="1"></feFlood>
            <feComposite in2="oBlur" operator="in"></feComposite>
            <feMerge>
                <feMergeNode></feMergeNode>
                <feMergeNode in="SourceGraphic"></feMergeNode>
            </feMerge>
        </filter>
        <g filter="url(#a)">
            <path fill="#FF851B" d="M-205.095 25.44v-50.62h19.31q7.41 0 11.88 3.04 4.46 3.04 4.46 8.91 0 3.59-1.58 5.96t-4.06 3.66q-2.48 1.28-5.22 1.6l.11-.14q5.55.91 9.12 4.35 3.57 3.45 3.57 9.64 0 5.03-2.34 8.01-2.34 2.99-6.21 4.29-3.86 1.3-8.47 1.3Zm6.33-5.2h14.24q4.11 0 6.43-1.42 2.33-1.43 3.26-3.64.93-2.22.93-4.61 0-3.41-1.58-5.62-1.59-2.22-4.47-3.31-2.88-1.09-6.82-1.09h-11.99Zm0-24.89h12.66q4.15 0 7.1-1.78 2.95-1.77 2.95-5.95 0-3.34-2.26-5.47-2.27-2.13-7.44-2.13h-13.01Z"></path>
            <rect width="37.59" height="50.62" x="-18.795" y="-25.31" fill="none" rx="0" ry="0" transform="matrix(1 0 0 1 -185.8 .63)"></rect>
            <path fill="#FF851B" d="M-146.895 26.29q-3.97 0-6.89-1.8-2.92-1.79-4.5-5.13t-1.58-7.98v-23.91h5.91v23.45q0 4.64 1.75 7.54 1.76 2.91 6.33 2.91 3.41 0 5.91-1.76 2.49-1.76 3.88-5.28 1.39-3.51 1.39-8.79v-18.07h5.91v37.97h-5.56v-8.93l.25 1.55q-1.48 3.52-4.77 5.87-3.28 2.36-8.03 2.36"></path>
            <rect width="31.08" height="38.82" x="-15.54" y="-19.41" fill="none" rx="0" ry="0" transform="matrix(1 0 0 1 -143.825 7.38)"></rect>
            <path fill="#FF851B" d="M-118.265 25.44v-37.97h5.56v8.06l-.21-.92q1.68-3.94 5.08-5.96 3.39-2.02 6.87-2.02 1.02 0 1.99.18.96.17 1.81.59l-.78 5.56q-1.93-.6-3.83-.6-1.19 0-2.97.48-1.78.47-3.52 1.89-1.74 1.43-2.91 4.24-1.18 2.81-1.18 7.49v18.98Z"></path>
            <rect width="21.1" height="38.81" x="-10.55" y="-19.405" fill="none" rx="0" ry="0" transform="matrix(1 0 0 1 -107.215 6.535)"></rect>
            <path fill="#FF851B" d="M-92.055 25.44v-37.97h5.55v8.58l-.24-1.54q1.51-3.27 4.78-5.58 3.27-2.3 7.94-2.3 4.04 0 6.96 1.79 2.92 1.8 4.5 5.12 1.58 3.32 1.58 8v23.9h-5.9V1.99q0-4.67-1.92-7.55-1.91-2.89-6.31-2.89-4.74 0-7.89 3.61-3.15 3.6-3.15 10.42v19.86Z"></path>
            <rect width="31.07" height="38.81" x="-15.535" y="-19.405" fill="none" rx="0" ry="0" transform="matrix(1 0 0 1 -76.02 6.535)"></rect>
            <path fill="#FF851B" d="M-21.265 26.29q-4.67 0-8.1-1.57-3.43-1.56-5.52-4.52-2.09-2.95-2.76-7.06l6.71-1.97q.57 4.89 2.78 7.4 2.22 2.51 7 2.51 4.32 0 6.52-2.3 2.2-2.3 2.2-7.65v-31.11h-18.46v-5.2h24.79v36.31q0 3.7-1.01 6.53-1 2.83-2.93 4.74-1.94 1.92-4.75 2.9-2.81.99-6.47.99"></path>
            <rect width="31.54" height="51.47" x="-15.77" y="-25.735" fill="none" rx="0" ry="0" transform="matrix(1 0 0 1 -21.375 1.055)"></rect>
            <path fill="#FF851B" d="M19.605 26.29q-5.35 0-9.42-2.52-4.08-2.51-6.37-6.98-2.28-4.46-2.28-10.33t2.28-10.34q2.29-4.46 6.37-6.98 4.07-2.51 9.42-2.51 5.34 0 9.42 2.51 4.08 2.52 6.36 6.98 2.29 4.47 2.29 10.34t-2.29 10.33q-2.28 4.47-6.36 6.98-4.08 2.52-9.42 2.52m0-4.92q5.38 0 8.49-4.01 3.11-4.01 3.11-10.9 0-6.93-3.11-10.92t-8.49-3.99q-5.38 0-8.49 3.99-3.11 3.99-3.11 10.92 0 6.89 3.11 10.9 3.11 4.01 8.49 4.01"></path>
            <rect width="36.14" height="39.66" x="-18.07" y="-19.83" fill="none" rx="0" ry="0" transform="matrix(1 0 0 1 20.105 6.96)"></rect>
            <path fill="#FF851B" d="M58.145 26.29q-3.97 0-6.89-1.8-2.92-1.79-4.5-5.13t-1.58-7.98v-23.91h5.91v23.45q0 4.64 1.75 7.54 1.76 2.91 6.33 2.91 3.41 0 5.91-1.76 2.49-1.76 3.88-5.28 1.39-3.51 1.39-8.79v-18.07h5.91v37.97h-5.56v-8.93l.25 1.55q-1.48 3.52-4.76 5.87-3.29 2.36-8.04 2.36"></path>
            <rect width="31.08" height="38.82" x="-15.54" y="-19.41" fill="none" rx="0" ry="0" transform="matrix(1 0 0 1 61.215 7.38)"></rect>
            <path fill="#FF851B" d="M86.775 25.44v-37.97h5.56v8.06l-.21-.92q1.68-3.94 5.08-5.96 3.39-2.02 6.87-2.02 1.02 0 1.99.18.96.17 1.81.59l-.78 5.56q-1.93-.6-3.83-.6-1.19 0-2.97.48-1.78.47-3.52 1.89-1.74 1.43-2.91 4.24-1.18 2.81-1.18 7.49v18.98Z"></path>
            <rect width="21.1" height="38.81" x="-10.55" y="-19.405" fill="none" rx="0" ry="0" transform="matrix(1 0 0 1 97.825 6.535)"></rect>
            <path fill="#FF851B" d="M112.985 25.44v-37.97h5.55v8.58l-.24-1.54q1.51-3.27 4.78-5.58 3.27-2.3 7.94-2.3 4.05 0 6.96 1.79 2.92 1.8 4.5 5.12 1.59 3.32 1.59 8v23.9h-5.91V1.99q0-4.67-1.92-7.55-1.91-2.89-6.31-2.89-4.74 0-7.89 3.61-3.15 3.6-3.15 10.42v19.86Z"></path>
            <rect width="31.08" height="38.81" x="-15.54" y="-19.405" fill="none" rx="0" ry="0" transform="matrix(1 0 0 1 129.025 6.535)"></rect>
            <path fill="#FF851B" d="M163.795 26.29q-3.8 0-6.59-1.46-2.8-1.46-4.31-3.99-1.51-2.53-1.51-5.73 0-3.41 2-6.3 2.01-2.88 6.21-4.62 4.2-1.74 10.78-1.74h6.32l-.63.63V1.01q0-4.57-1.83-7.01-1.83-2.45-6.11-2.45-4.05 0-6.23 2.09-2.18 2.1-2.32 5.61l-6.64-1.51q.31-3.06 2.34-5.57 2.02-2.52 5.41-4.03 3.39-1.51 7.86-1.51 4.6 0 7.5 1.74 2.9 1.74 4.27 5.01 1.38 3.27 1.38 7.88v17.33q0 1.16.33 1.54.33.39 1.42.39h2.15v4.92h-3.76q-2.39 0-4.01-1.49-1.62-1.5-1.62-3.78V17.5h.88q-.56 1.47-1.62 3-1.05 1.53-2.67 2.85-1.62 1.32-3.85 2.13-2.23.81-5.15.81m1.34-4.92q2.91 0 5.41-1.45 2.5-1.44 4.03-4.51 1.53-3.08 1.53-8v-.32h-5.95q-4.67 0-7.36 1.23-2.69 1.23-3.82 3.04-1.12 1.81-1.12 3.61 0 1.79.81 3.23t2.42 2.3q1.62.87 4.05.87"></path>
            <rect width="34.21" height="39.66" x="-17.105" y="-19.83" fill="none" rx="0" ry="0" transform="matrix(1 0 0 1 168.99 6.96)"></rect>
            <path fill="#FF851B" d="M198.365 25.44q-2.25 0-3.93-1.49-1.69-1.5-1.69-3.78v-47.46h5.9v45.88q0 1.16.34 1.54.33.39 1.42.39h3.69v4.92Z"></path>
            <rect width="11.35" height="52.73" x="-5.675" y="-26.365" fill="none" rx="0" ry="0" transform="matrix(1 0 0 1 198.92 -.425)"></rect>
        </g>
    </g>
    <path fill="#FF851B" d="M249.713 66.276c27.148 25.662 36.722 63.44-16.823 96.826 7.535-10.2 11.704-20.273 12.619-30.365 1.969-21.768-11.604-39.479-26.568-55.376-21.934-23.304-23.565-45.784-5.136-70.745-3.799 32.829 16.947 41.736 35.908 59.66M190.776 186.57c12.801-27.02 15.061-42.025-16.968-72.324-8.702-8.232-15.423-16.62-20.1-25.018-5.963 13.32-10.689 41.568 6.716 57.826 11.772 10.995 27.945 17.592 30.352 39.516m23.642-104.953c-17.65-18.755-30.45-45.046-5.608-78.69-67.281 26.273-71.156 68.57-30.737 106.806 34.055 32.212 32.29 49.997 18.317 79.495 65.981-48.645 42.868-81.219 18.028-107.611"></path>
</svg></svg>